Coordinates
version=1
nRows=7
nColumns=33
inDegrees=yes

Units are S.I. units (second, meters, Newtons, ...)
Angles are in degrees.

endheader
time	ground_thorax_rot_x	ground_thorax_rot_y	ground_thorax_rot_z	ground_thorax_tx	ground_thorax_ty	ground_thorax_tz	clav_prot_r	clav_elev_r	scapula_abduction_r	scapula_elevation_r	scapula_upward_rot_r	scapula_winging_r	shoulder_elv_r	plane_of_elev_r	axial_rot_r	elbow_flexion_r	pro_sup_r	wrist_flex_r	wrist_dev_r	clav_prot_l	clav_elev_l	scapula_abduction_l	scapula_elevation_l	scapula_upward_rot_l	scapula_winging_l	shoulder_elv_l	plane_of_elev_l	axial_rot_l	elbow_flexion_l	pro_sup_l	wrist_flex_l	wrist_dev_l
     10.32000000	    -34.44376540	    -20.76679210	     31.72855375	   -192.40195877	    815.94028280	      6.40265838	      7.30142031	    -45.00000000	     38.52942653	    -45.00000000	    -36.36092432	   2058.05682905	  -1729.04144422	     33.33892268	     62.28840394	   2173.24577338	     19.05536762	     19.48521002	      7.32080884	     14.73980560	     37.54079318	    -36.62513947	    -45.00000000	    -45.00000000	  -2075.53279724	   2065.20507014	    135.10449223	    171.03776904	   1450.67501178	   -353.76650949	      7.37609074	    -19.13018134
     10.33000000	    -34.09104404	    -21.18136124	     32.40297616	   -188.30117742	    814.45748960	      6.42410927	      7.35187671	    -45.00000000	     38.60127288	    -45.00000000	    -36.41996381	   2058.23425661	  -1729.23868928	     33.22393332	     62.47615642	   2173.17047157	     18.83177077	     19.44174753	      7.63082527	     14.78842277	     37.57845486	    -36.52149580	    -45.00000000	    -45.00000000	  -2075.70692222	   2065.08299134	    134.99907339	    170.82932797	   1450.72737286	   -353.34958115	      7.52673273	    -19.10387914
     10.34000000	    -33.74713465	    -21.64781572	     33.08565674	   -184.09885327	    812.89666344	      6.44793914	      7.29594018	    -45.00000000	     38.58626417	    -45.00000000	    -36.38970623	   2058.39347834	  -1729.48875566	     33.16033863	     62.72174680	   2173.05189531	     18.63522111	     19.36354475	      7.95201752	     14.81824033	     37.57418025	    -36.47321699	    -45.00000000	    -45.00000000	  -2075.93143146	   2064.88961659	    135.08366522	    170.68026615	   1450.76966888	   -352.91081685	      7.69326415	    -19.07128090
     10.35000000	    -33.36847284	    -22.11898785	     33.84696514	   -179.79892187	    811.26146743	      6.47462214	      7.29516325	    -45.00000000	     38.56692758	    -45.00000000	    -36.46808590	   2058.55185291	  -1729.70206649	     33.04176639	     62.94369759	   2172.99795994	     18.48200691	     19.30300166	      8.25900019	     14.88807325	     37.62455024	    -36.38665647	    -45.00000000	    -45.00000000	  -2076.11875665	   2064.68223593	    135.08481203	    170.39597111	   1450.75670916	   -352.43999433	      7.83498068	    -19.02998325
     10.36000000	    -33.00419146	    -22.70391020	     34.65979002	   -175.41228110	    809.55860793	      6.50437553	      7.38992840	    -45.00000000	     38.53877082	    -45.00000000	    -36.63092719	   2058.70545760	  -1730.04388587	     32.97786869	     63.20640253	   2172.90968961	     18.40110398	     19.21479138	      8.54067381	     14.80010753	     37.59933113	    -36.31174258	    -45.00000000	    -45.00000000	  -2076.29499014	   2064.47795206	    135.18984824	    170.05923908	   1450.59785520	   -351.93553213	      8.02356861	    -18.95763857
     10.37000000	    -32.59125170	    -23.29871244	     35.47230083	   -170.93547741	    807.79000227	      6.53733404	      7.49612261	    -45.00000000	     38.53504427	    -45.00000000	    -36.86810380	   2058.89997011	  -1730.36231189	     32.90439661	     63.51955430	   2172.80794677	     18.40061406	     19.12561981	      8.80946195	     14.77621631	     37.60876169	    -36.12235712	    -45.00000000	    -45.00000000	  -2076.42758056	   2064.29694203	    135.20105973	    169.57210467	   1450.51886745	   -351.41768717	      8.18114950	    -18.90320970
     10.38000000	    -32.11923704	    -23.80646618	     36.41491217	   -166.37911751	    805.96454551	      6.57333495	      7.51137287	    -45.00000000	     38.45367036	    -45.00000000	    -37.16848140	   2059.06107667	  -1730.60774019	     32.75747881	     63.80210491	   2172.69525470	     18.48033783	     19.02677206	      9.09214315	     14.76006934	     37.62645525	    -35.97410489	    -45.00000000	    -45.00000000	  -2076.69307948	   2064.03362853	    135.28507294	    169.14112197	   1450.47491094	   -350.89025678	      8.35501739	    -18.85334100
